<svg width="20" height="20" viewBox="0 0 20 20" fill="none" xmlns="http://www.w3.org/2000/svg">
<path d="M16.6667 5.83341V5.66675C16.6667 4.26662 16.6667 3.56655 16.3942 3.03177C16.1545 2.56137 15.772 2.17892 15.3016 1.93923C14.7669 1.66675 14.0668 1.66675 12.6667 1.66675H7.33333C5.9332 1.66675 5.23313 1.66675 4.69835 1.93923C4.22795 2.17892 3.8455 2.56137 3.60581 3.03177C3.33333 3.56655 3.33333 4.26662 3.33333 5.66675V14.3334C3.33333 15.7335 3.33333 16.4336 3.60581 16.9684C3.8455 17.4388 4.22795 17.8212 4.69835 18.0609C5.23313 18.3334 5.9332 18.3334 7.33333 18.3334H10.4167M10.4167 9.16675H6.66666M9.58333 12.5001H6.66666M13.3333 5.83341H6.66666M15 15.0001V10.4167C15 9.72639 15.5596 9.16675 16.25 9.16675C16.9404 9.16675 17.5 9.72639 17.5 10.4167V15.0001C17.5 16.3808 16.3807 17.5001 15 17.5001C13.6193 17.5001 12.5 16.3808 12.5 15.0001V11.6667" stroke="white" stroke-width="1.5" stroke-linecap="round" stroke-linejoin="round"/>
</svg>
