<svg width="14" height="14" viewBox="0 0 14 14" fill="none" xmlns="http://www.w3.org/2000/svg">
<path d="M12.2498 6.70833C12.2498 9.44675 10.0299 11.6667 7.29146 11.6667C6.66334 11.6667 6.06249 11.5499 5.50946 11.3368C5.40835 11.2979 5.3578 11.2784 5.31759 11.2691C5.27805 11.26 5.24943 11.2562 5.20888 11.2546C5.16765 11.2531 5.12242 11.2577 5.03195 11.2671L2.04469 11.5759C1.75988 11.6053 1.61748 11.62 1.53348 11.5688C1.46031 11.5242 1.41048 11.4496 1.39721 11.365C1.38198 11.2677 1.45003 11.1418 1.58613 10.8899L2.54026 9.12381C2.61884 8.97837 2.65813 8.90565 2.67592 8.83572C2.6935 8.76667 2.69775 8.71687 2.69212 8.64583C2.68643 8.57391 2.65487 8.48028 2.59176 8.29302C2.42404 7.79543 2.33312 7.2625 2.33312 6.70833C2.33312 3.96992 4.55305 1.75 7.29146 1.75C10.0299 1.75 12.2498 3.96992 12.2498 6.70833Z" stroke="#767676" stroke-linecap="round" stroke-linejoin="round"/>
</svg>
